#!OML:ASF F:\VICON\USERDATA\INSTALL\rory3\rory3.ASF
:FULLY-SPECIFIED
:DEGREES
68
root 0.6876555551505181 17.86668637953904 18.96871920503674 -4.517976244237065 -3.3047640930084894 0.10973726795246552
lfemur -12.040573369872444 -2.9988014373392984 -24.601471006996146
ltibia 28.88715360928436
lfoot -8.523460685963858 -1.7439214828610012
ltoes -3.486772843177831
rfemur -14.516681584851256 1.4138376813344453 23.045581231296516
rtibia 72.93292558803478
rfoot -0.8830668811608611 -6.744103232048079
rtoes 5.17397506091344
lowerback 10.743571229241114 0.7459594278421562 -0.5511045190362793
upperback 0.5139267569703921 1.1080061392012635 0.7726247682352813
thorax -5.43544879208179 1.1073967030153022 -0.09438935673885274
lowerneck -15.629427085616207 -2.7425900028895844 -2.973123392146525
upperneck 22.70179030971244 -3.5306928316749118 0.7556374360929318
head 9.780515582590693 -1.6662413768864286 0.19421144628715076
lclavicle -1.3905271336919085e-15 -1.8578660668339977e-15
lhumerus -32.34791775184528 4.744901621320533 80.447571564789
lradius 18.867584345343552
lwrist 1.7092558381307839
lhand -27.12168149148026 23.455798103028954
lfingers 7.125019999999999
lthumb -0.6018468375789476 53.51871881120975
rclavicle -1.3882905874270426e-15 -1.844522117839112e-15
rhumerus -29.37917088101205 -22.37877638042097 -77.8807728399335
rradius 29.556006356475546
rwrist 4.208824755136256
rhand -18.221653544242688 22.637945876343764
rfingers 7.125019999999999
rthumb 8.05980490784492 -7.290661128513593
69
root 0.6729900740418381 17.848257810458684 19.649489770752897 -4.5037938858700715 -2.8878449053162725 0.30017419749629637
lfemur -9.26155713464866 -3.017510900718399 -25.221942309603325
ltibia 28.549344025758764
lfoot -8.514123195750495 -1.3251652074609614
ltoes -3.661256494158247
rfemur -17.3446914626756 1.0461075329954723 22.65962120117472
rtibia 71.8729733671326
rfoot -2.3531056776972985 -7.161484043778736
rtoes 4.721770167319953
lowerback 10.825183257541914 0.44342453756523503 -0.9982623713483045
upperback 0.5704485779051557 0.6101062777892033 0.8077088014013344
thorax -5.526248581095507 0.9008124785279483 0.322679916686309
lowerneck -15.6348956194011 -2.7134002715662198 -2.9664031114478844
upperneck 22.652741307754532 -3.456114234641118 0.7193372768823936
head 9.77271861439801 -1.6638514619466809 0.17428432677372524
lclavicle -1.3905271068708036e-15 -1.8578660863421177e-15
lhumerus -31.60158506565559 3.808001660071801 80.61017785021895
lradius 19.445406153084328
lwrist 2.449199435690768
lhand -27.13488842905923 23.538945555484936
lfingers 7.125019999999999
lthumb -0.6122285944827343 53.55210757085742
rclavicle -1.3882905395340816e-15 -1.8445220735554685e-15
rhumerus -30.32871186938244 -22.98058998052674 -77.69539791119321
rradius 28.448361892273383
rwrist 5.27494401681709
rhand -18.25012859671919 22.619707263190747
rfingers 7.125019999999999
rthumb 8.05980111934031 -7.282765177376941
70
root 0.6540745740573843 17.816622091184602 20.452573902077578 -4.32790814089946 -2.456505313841964 0.5356125708724457
lfemur -6.934974116856891 -3.1141033369809907 -25.720759975549534
ltibia 28.401479447733887
lfoot -9.749602717814254 -1.3318715986858374
ltoes -3.8432337384782103
rfemur -19.986854049691964 0.8569446083121526 22.36260405329899
rtibia 68.33861353935774
rfoot -3.6142005415350598 -7.382037341279011
rtoes 3.8179480532828722
lowerback 10.881461607423834 0.14202835896711785 -1.426467441962611
upperback 0.597710755805582 0.1228485805661867 0.8670267339646285
thorax -5.575217446633388 0.6661245866638601 0.7644679852466469
lowerneck -15.585250880964871 -2.687463669582847 -2.9499801490125055
upperneck 22.59521739189803 -3.4149755835493965 0.7063278841080821
head 9.77443886450553 -1.6672976865091191 0.16374367270861584
lclavicle -1.390527263552307e-15 -1.857866219348349e-15
lhumerus -31.010317201432823 2.653779754246281 80.66565926020074
lradius 20.18981935374444
lwrist 3.159605831392003
lhand -27.14190664773544 23.65966246439976
lfingers 7.125019999999999
lthumb -0.6232060175501303 53.610658119553676
rclavicle -1.3882905607806303e-15 -1.8445220951601844e-15
rhumerus -31.25628357605119 -23.24523476494696 -77.56154337830583
rradius 27.388905366063653
rwrist 5.490342039826291
rhand -18.266178857414296 22.60857585141797
rfingers 7.125019999999999
rthumb 8.07569151385511 -7.257333600501457
71
root 0.6270323432799897 17.783301075774855 21.261204383451435 -3.9819757982239374 -2.0890844379005817 0.8434682137827085
lfemur -4.9200860455222095 -3.1919638922434794 -26.30896059519909
ltibia 27.963834047838414
lfoot -10.522517605030936 -1.4989314909422027
ltoes -3.965669190625583
rfemur -22.15552223560492 0.9262440600376318 22.19798267140971
rtibia 62.43687679058037
rfoot -4.817625762303035 -7.7459167004870375
rtoes 3.024327063431243
lowerback 10.893324339666567 -0.12996602584243555 -1.8321464845222701
upperback 0.5991072758440387 -0.32238047184979857 0.9374759095954517
thorax -5.570715340096527 0.4181735389833219 1.2254351152796803
lowerneck -15.515553764756879 -2.676875417363061 -2.9429095508724235
upperneck 22.526397081291982 -3.3870458288401606 0.7221352577535647
head 9.77793496972631 -1.6772805752968851 0.1574525737533079
lclavicle -1.3905272298952306e-15 -1.8578661975157633e-15
lhumerus -30.502910629931584 1.5931605252083731 80.60329980019293
lradius 21.103332362578822
lwrist 3.8325493325554443
lhand -27.139085554031638 23.818068025308207
lfingers 7.125019999999999
lthumb -0.6225738628464152 53.71170675844042
rclavicle -1.3882905601782757e-15 -1.844522094761506e-15
rhumerus -31.985773288637276 -23.213790264271527 -77.21634571920941
rradius 26.495410819638927
rwrist 5.178368638751639
rhand -18.267895979136043 22.60437568809116
rfingers 7.125019999999999
rthumb 8.100189346790335 -7.227166316108398
72
root 0.5900001474383543 17.756854210871346 22.08220967874408 -3.485545263478509 -1.7548248665283888 1.2103073312293016
lfemur -2.8162335202226254 -3.150521742612352 -26.929855306937664
ltibia 26.397850744734527
lfoot -10.280489684486506 -1.3580145118410112
ltoes -4.132219967107314
rfemur -23.80020868703089 1.0995779667628303 22.01665852488876
rtibia 54.1863541385041
rfoot -5.76781912904938 -8.264566372174865
rtoes 2.469906110392909
lowerback 10.843711539006765 -0.3594033553465326 -2.189221395778531
upperback 0.5753580583699901 -0.6878651242835558 1.0191701137321063
thorax -5.509467535344944 0.1753550628256509 1.699154749205929
lowerneck -15.429490556186288 -2.679213530273624 -2.948402672769287
upperneck 22.445243925518376 -3.3674519559966405 0.7514238813644504
head 9.776686352962447 -1.6881667740039243 0.14925273046177812
lclavicle -1.3905272826394521e-15 -1.8578662210510864e-15
lhumerus -29.996503010334372 0.8450620619752174 80.52476716799403
lradius 22.181120635861028
lwrist 4.426645911475274
lhand -27.14008885445809 23.978216948354856
lfingers 7.125019999999999
lthumb -0.6183842819697632 53.83074604177608
rclavicle -1.3882905563515314e-15 -1.844522091574585e-15
rhumerus -32.58182720958237 -23.221833029831796 -76.70686753020809
rradius 25.834802847487
rwrist 4.814373001659304
rhand -18.253634072337885 22.610122782626043
rfingers 7.125019999999999
rthumb 8.124599652246046 -7.2076538207789005
73
root 0.5418704311286062 17.73252360606564 22.841656269460152 -2.9119748966384704 -1.4165134532808057 1.5138271374160723
lfemur -0.37004146832423146 -2.969239625610852 -27.285299123113276
ltibia 23.615948839692205
lfoot -9.90366004268405 -1.5530442446652812
ltoes -4.2728314084059
rfemur -24.925416818117228 1.413681270055946 21.722806733806003
rtibia 43.90519081536638
rfoot -6.022170349795971 -8.711889311301073
rtoes 2.029724950999549
lowerback 10.743271292696265 -0.5319116080399526 -2.4291005568543214
upperback 0.536604384571738 -0.9457144074789758 1.115887481058548
thorax -5.401839654771711 -0.051759556331566925 2.1659451134289367
lowerneck -15.352395841184405 -2.689493808983487 -2.9628748155053373
upperneck 22.39583532772666 -3.347679551045323 0.7988736701586643
head 9.775975939614154 -1.69543557994705 0.13951113620416744
lclavicle -1.3905273900832266e-15 -1.857866288591721e-15
lhumerus -29.538930277276883 0.41617384173869976 80.42439973399458
lradius 23.40072832778263
lwrist 4.992147830255454
lhand -27.148205901652712 24.126345109077917
lfingers 7.125019999999999
lthumb -0.618733007140009 53.94770657924122
rclavicle -1.3882905671334337e-15 -1.844522098526298e-15
rhumerus -33.11292856882146 -23.481772218430553 -76.15714383475284
rradius 25.405424307728875
rwrist 4.709889991076799
rhand -18.22669934951141 22.62075989585159
rfingers 7.125019999999999
rthumb 8.1403185288758 -7.205247021810032
74
root 0.480773529169008 17.69758508819838 23.530433110936585 -2.3918535394658234 -1.064981506748616 1.7382528372260482
lfemur 2.495127375011764 -2.640187825870107 -27.41047984058128
ltibia 20.01271658039025
lfoot -9.873331615602014 -2.2559590746179214
ltoes -4.343005568973141
rfemur -25.58596044920653 2.2269219347603233 21.103752817649344
rtibia 32.91451628962239
rfoot -5.624159009786705 -9.212680691421529
rtoes 1.6183639060790358
lowerback 10.616125536153742 -0.6552941479126657 -2.555089682717272
upperback 0.4948943243728715 -1.1245457619370185 1.2149756873805224
thorax -5.266266277860388 -0.25839920583273174 2.6072291354277626
lowerneck -15.279255353823535 -2.694833607330028 -2.967550403314266
upperneck 22.36211883661983 -3.329853637532641 0.8094948277228886
head 9.770772794999548 -1.7002545872640562 0.12468512306257956
lclavicle -1.3905273231145209e-15 -1.85786625084822e-15
lhumerus -29.14557291482572 0.3525824587762898 80.36125935692702
lradius 24.714081868143662
lwrist 5.477241888377544
lhand -27.16599888294176 24.255941742342696
lfingers 7.125019999999999
lthumb -0.6271460872654577 54.05526466280028
rclavicle -1.3882905252167196e-15 -1.8445220598486743e-15
rhumerus -33.584268080584536 -23.991206094300185 -75.48310702018443
rradius 25.141269796563943
rwrist 4.951149837202546
rhand -18.190078932748857 22.63389201048525
rfingers 7.125019999999999
rthumb 8.144816734266673 -7.2195146535087344
